<svg xmlns="http://www.w3.org/2000/svg" width="235.75" height="255.52" viewBox="0 0 235.75 255.52">
  <path id="Path_107" data-name="Path 107" d="M884.51,383.87c-.04-.05-.07-.11-.11-.16a6.628,6.628,0,0,0-1.37-1.91c-.04-.06-.08-.11-.12-.17a6.866,6.866,0,0,0-1.93-1.29,6.1,6.1,0,0,0-1.33-.44,6.2,6.2,0,0,0-1.62-.2,5.485,5.485,0,0,0-.58.03,7.109,7.109,0,0,0-3.06.97l-.02.02a.01.01,0,0,0-.01.01,6.671,6.671,0,0,0-1.27.97,7.132,7.132,0,0,0-.77.88l-.02.02a7.09,7.09,0,0,0-.32,8.05c.01.02.01.03.03.04.13.19.26.37.39.56a.01.01,0,0,0,.01.01c10.59,14.99,16.58,31.99,16.58,49.99V619.97l-65.83-65.41a37.256,37.256,0,0,0-26.36-10.88,38.153,38.153,0,0,0-9.33,1.16,200.091,200.091,0,0,1-48.25,5.81,196.049,196.049,0,0,1-61.62-9.72,6.107,6.107,0,0,0-1.33-.44,6.2,6.2,0,0,0-1.62-.2,5.485,5.485,0,0,0-.58.03,7.028,7.028,0,0,0-4.34,1.95,7.12,7.12,0,0,0,2.15,11.72.563.563,0,0,0,.12.04c.24.09.47.17.71.25a208.9,208.9,0,0,0,66.5,10.64,214.377,214.377,0,0,0,51.7-6.23,23.27,23.27,0,0,1,22.17,6l67.01,66.57a13.6,13.6,0,0,0,23.18-9.65V441.24C903.27,420.55,896.49,401.02,884.51,383.87Z" transform="translate(-667.52 -379.7)" fill="#1bc5bd" opacity="0.25"/>
</svg>
